<svg xmlns="http://www.w3.org/2000/svg" version="1.1" viewBox="242.26 123.57 538.83 584.37"><path d="M 502.895 129.750 C 472.791 157.113, 470.302 180.997, 494.740 208.002 C 500 213.815, 500 213.815, 500 232.141 C 500 250.468, 500 250.468, 495.961 243.556 C 487.739 229.487, 477.850 216.903, 460.420 198.334 C 449.131 186.306, 449 186.112, 448.983 181.334 C 448.891 155.699, 432.595 137.671, 402.886 130.336 C 388.390 126.757, 387.508 127.061, 385.973 136.162 C 381.254 164.136, 398.561 191.885, 424 197.132 C 434.969 199.394, 471.137 243.304, 485.259 271.504 C 497.143 295.234, 497.296 296.064, 496.583 333 C 495.581 384.902, 495.478 385.782, 491.030 380.166 C 487.667 375.921, 482.634 371.323, 460 351.821 C 451.515 344.510, 452.667 348.076, 450.043 321 C 449.430 314.675, 447.805 302.667, 446.432 294.315 C 443.935 279.130, 443.935 279.130, 446.071 272.815 C 453.915 249.633, 435.182 222.414, 409.271 219.346 C 393.408 217.467, 398.246 263.260, 415.543 278.726 C 424.381 286.628, 428.280 298.770, 429.549 322.344 C 429.850 327.930, 430.290 333.745, 430.526 335.266 C 431.042 338.580, 421.733 332.862, 408 321.429 C 394.699 310.354, 394.355 309.840, 392.989 299 C 390.369 278.206, 382.969 256.173, 372.122 236.867 C 367.749 229.083, 367.317 227.755, 367.736 223.367 C 370.308 196.418, 340.895 168, 310.430 168 C 304.195 168, 303 170.780, 303 185.283 C 303 212.535, 317.768 233.622, 341.675 240.507 C 351.652 243.380, 351.305 243.050, 357.917 255.966 C 371.062 281.646, 374.912 301.168, 365.851 296.194 C 362.908 294.578, 352.482 289.711, 342.682 285.378 C 324.864 277.500, 324.864 277.500, 321.766 271 C 310.038 246.387, 281.215 237.592, 251.617 249.596 C 240.019 254.299, 239.606 256.905, 248.167 271.372 C 260.971 293.007, 286.503 305.095, 307.840 299.622 C 316.581 297.379, 375.946 324.713, 375.989 331 C 375.991 331.275, 367.557 331.518, 357.246 331.541 C 343.040 331.572, 336.641 332.008, 330.824 333.343 C 323.148 335.103, 323.148 335.103, 317.324 332.172 C 290.271 318.556, 257.665 329.808, 243.300 357.717 C 236.176 371.559, 274.128 387.042, 296.652 379.481 C 307.678 375.779, 327 361.366, 327 356.843 C 327 354.853, 349.966 351, 361.827 351 C 374.246 351, 415.478 357.855, 413.708 359.625 C 413.574 359.759, 409.198 360.760, 403.982 361.849 C 386.613 365.477, 370.377 372.463, 359 381.205 C 353.846 385.166, 352.975 385.474, 345.163 386.107 C 320.300 388.121, 303 409.250, 303 437.603 C 303 448.295, 302.718 448.012, 313.332 447.976 C 337.478 447.893, 356.168 433.682, 363.948 409.490 C 371.653 385.531, 421.447 373.683, 451.671 388.617 C 480.641 402.931, 486.742 422.179, 483.014 487.500 C 479.876 542.488, 462.601 557.192, 399 559.010 C 364.193 560.005, 357.549 561.654, 343.534 572.772 C 313.642 596.485, 315.193 648.158, 346.331 666.017 C 355.861 671.482, 360.631 666.828, 352.854 659.654 C 332.196 640.597, 337.796 605.580, 363.525 592.913 C 376.426 586.562, 422.079 583.234, 414.500 589.197 C 381.137 615.446, 373.067 658.824, 398.165 677.005 C 405.771 682.515, 412.008 679.190, 406.288 672.676 C 397.952 663.181, 395.674 644.099, 401.500 632.555 C 407.715 620.239, 417.613 612.298, 449.500 594.044 C 470.030 582.290, 480.360 575.415, 486.599 569.352 C 490.944 565.129, 490.944 565.129, 490.333 569.814 C 487.813 589.155, 481.248 601.616, 464.424 618.994 C 441.253 642.928, 436.402 656.047, 442.946 677.073 C 449.105 696.864, 473.236 712.289, 489.500 706.833 C 495.032 704.977, 495.333 700.838, 490 699.953 C 476.931 697.785, 464.554 682.734, 464.546 669 C 464.538 656.052, 466.111 653.884, 496.120 625.480 C 500.781 621.069, 506.337 614.636, 508.467 611.185 C 512.340 604.910, 512.340 604.910, 515.363 610.205 C 518.201 615.177, 525.019 622.369, 545.079 641.553 C 567.850 663.328, 561.821 694.176, 533.668 699.934 C 527.803 701.134, 529.240 705.181, 536.152 706.931 C 551.792 710.891, 573.380 697.665, 580.086 680.015 C 588.214 658.625, 583.751 644.012, 562.350 621.940 C 542.240 601.199, 537.684 592.767, 533.523 568.593 C 532.850 564.686, 532.850 564.686, 539.305 570.593 C 546.420 577.105, 553.476 581.753, 581 598.062 C 626.884 625.249, 639.314 650.510, 617.753 672.754 C 611.941 678.751, 619.509 682.334, 626.889 677.079 C 650.634 660.171, 641.752 611.723, 611.094 590.921 C 604.092 586.170, 604.032 586.192, 622.750 586.670 C 660.451 587.631, 676.128 596.764, 682.470 621.460 C 686.106 635.621, 680.888 653.822, 670.900 661.822 C 667.572 664.487, 667.347 665.621, 669.640 668.155 C 676.329 675.545, 697.195 650.989, 701.055 631.184 C 709.649 587.096, 681.920 560.765, 625 558.962 C 570.555 557.237, 548.493 543.738, 542.531 508.500 C 537.010 475.867, 538.970 426.486, 546.342 412.513 C 566.018 375.214, 648.852 371.867, 658.022 408 C 664.178 432.256, 684.549 448, 709.776 448 C 720.475 448, 721.003 447.539, 720.985 438.215 C 720.931 410.002, 702.606 387.917, 677.885 386.271 C 669.937 385.742, 669.252 385.506, 664.734 381.750 C 653.411 372.335, 638.112 365.527, 619.603 361.667 C 608.706 359.394, 608.706 359.394, 616.603 357.235 C 655.370 346.636, 686.782 349.191, 702 364.180 C 725.589 387.414, 752.300 388.053, 778 366 C 783.710 361.100, 782.054 357.164, 768.500 343.420 C 751.085 325.759, 728.402 321.247, 707.753 331.335 C 701.006 334.631, 701.006 334.631, 693.253 333.193 C 688.445 332.301, 678.191 331.706, 666.254 331.627 C 655.669 331.557, 647.020 331.275, 647.033 331 C 647.290 325.554, 707.194 297.555, 714.511 299.461 C 739.205 305.893, 769.072 288.894, 779.095 262.704 C 781.833 255.549, 781.373 254.538, 773.764 250.977 C 743.695 236.907, 715.454 244.503, 701.289 270.472 C 697.486 277.443, 697.486 277.443, 678.993 286.041 C 668.822 290.770, 658.587 295.851, 656.250 297.332 C 650.946 300.693, 650.806 299.810, 654.434 285.859 C 661.521 258.613, 670.234 243.201, 680.105 240.453 C 706.775 233.028, 722.230 210.969, 720.709 182.500 C 719.885 167.082, 717.472 165.453, 701.460 169.510 C 675.112 176.185, 657.384 195.746, 656.401 219.227 C 656.046 227.726, 655.856 228.314, 649.130 241.741 C 638.899 262.164, 632.626 282.236, 630.455 301.500 C 629.551 309.521, 620.022 319.282, 599.999 332.699 C 592.498 337.725, 592.498 337.725, 592.787 329.613 C 593.553 308.160, 598.663 285.569, 603.595 281.828 C 617.874 270.998, 625.052 252.283, 622.263 233.152 C 620.227 219.184, 619.256 217.864, 612.332 219.657 C 584.561 226.846, 569.410 250.661, 577.861 273.839 C 579.964 279.606, 579.964 279.606, 577.501 292.053 C 575.387 302.738, 573.981 313.700, 571.384 339.725 C 570.862 344.950, 570.862 344.950, 553.934 360 C 544.624 368.278, 535.247 377.276, 533.097 379.996 C 529.188 384.941, 529.188 384.941, 528.562 374.721 C 525.211 320.089, 525.823 300.440, 531.324 285.909 C 544.240 251.794, 583.358 201.097, 600.617 196.106 C 624.092 189.318, 637.232 170.542, 637.433 143.500 C 637.550 127.818, 635.836 126.614, 619 130.549 C 592.634 136.710, 575 156.596, 575 180.167 C 575 185.235, 575 185.235, 563.812 196.868 C 547.221 214.119, 530.208 236.132, 525.840 246 C 523.666 250.911, 523.497 249.798, 523.561 230.978 C 523.622 212.961, 523.622 212.961, 527.669 208.731 C 552.468 182.810, 550.265 155.379, 521.353 130.118 C 511.431 121.449, 512.015 121.461, 502.895 129.750" stroke="none" fill="#2d2e2e" fill-rule="evenodd"/></svg>